<svg width="190" height="259" viewBox="0 0 190 259" fill="none" xmlns="http://www.w3.org/2000/svg">
<g id="LAMA">
<g id="body">
<g id="lags">
<g id="Group 128">
<path id="Vector 8436" d="M31.5007 249.27L32.8971 241.031L44.0679 242.218L40.7864 253.808C36.2643 255.051 34.3248 253.767 31.5007 249.27Z" fill="#2D2727" stroke="black" stroke-width="2"/>
<path id="Vector 8437" d="M43.2304 251.681L44.5567 243.431L55.7372 244.522L52.5543 256.14C48.043 257.421 46.0926 256.153 43.2304 251.681Z" fill="#2D2727" stroke="black" stroke-width="2"/>
<path id="Vector 8438" d="M106.275 250.108C105.835 246.567 106.566 244.131 107.951 241.196L118.214 242.847C118.08 247.997 118.622 250.65 116.747 253.878C111.676 255.441 108.401 254.95 106.275 250.108Z" fill="#2D2727" stroke="black" stroke-width="2"/>
<path id="Vector 8439" d="M121.617 254.925C121.617 254.925 123.491 245.947 124.177 244.4L134.441 246.051C134.59 251.092 133.689 253.607 131.531 256.95C125.906 259.225 121.617 254.925 121.617 254.925Z" fill="#2D2727" stroke="black" stroke-width="2"/>
</g>
<g id="Group 127">
<path id="Vector 8435" d="M123.59 245.919C124.088 231.402 121.82 223.831 117.237 210.452L137.204 209.195C138.024 223.753 137.507 231.807 134.342 245.919C130.161 249.319 127.775 249.407 123.59 245.919Z" fill="#B07A4B" stroke="black" stroke-width="2"/>
<g id="Vector 8432">
<path d="M16.1408 187.901C16.7642 178.587 15.9846 172.775 12.999 161.859H40.5071L42.1129 211.15C44.579 231.574 45.0869 239.807 43.0903 243.754C39.1749 244.806 36.9519 244.296 32.9668 241.032C32.6609 230.046 31.2856 223.366 28.1494 211.15C19.5642 208.761 17.367 202.923 16.1408 187.901Z" fill="#DC7510"/>
<path d="M28.1494 211.15C19.5642 208.761 17.367 202.923 16.1408 187.901C16.7642 178.587 15.9846 172.775 12.999 161.859H40.5071L42.1129 211.15M28.1494 211.15H42.1129M28.1494 211.15C31.2856 223.366 32.6609 230.046 32.9668 241.032C36.9519 244.296 39.1749 244.806 43.0903 243.754C45.0869 239.807 44.579 231.574 42.1129 211.15" stroke="black" stroke-width="2"/>
</g>
<path id="Vector 8434" d="M56.1463 244.522C59.0856 232.66 59.5049 224.65 59.7069 209.753L41.345 207.1C44.3229 221.518 45.6892 229.633 44.2075 244.522C48.9016 245.517 51.4522 245.505 56.1463 244.522Z" fill="#B07A4B" stroke="black" stroke-width="2"/>
<g id="Vector 8433">
<path d="M92.5911 205.704C91.2208 195.377 87.3446 193.3 80.0938 189.995H115.77L118.144 215.339C119.506 227.233 119.898 234.566 118.144 243.685C114.304 244.872 111.692 244.6 107.323 242.847C105.79 235.657 104.457 229.563 101.947 218.062C98.5805 216.271 95.5689 216.988 92.5911 205.704Z" fill="#DC7510"/>
<path d="M101.947 218.062C98.5805 216.271 95.5689 216.988 92.5911 205.704C91.2208 195.377 87.3446 193.3 80.0938 189.995H115.77L118.144 215.339M101.947 218.062C109.183 218.948 114.678 219.141 118.144 215.339M101.947 218.062C104.457 229.563 105.79 235.657 107.323 242.847C111.692 244.6 114.304 244.872 118.144 243.685C119.898 234.566 119.506 227.233 118.144 215.339" stroke="black" stroke-width="2"/>
</g>
</g>
</g>
<path id="Vector 8431" d="M172.022 104.471C170.104 107.227 167.414 114.804 156.034 114.175C160.416 118.227 163.352 121.041 165.529 125.276C169.415 124.572 175.862 124.159 175.862 124.159C175.862 124.159 186.265 122.833 188.499 111.522C190.596 100.91 176.229 98.4292 172.022 104.471Z" fill="#B07A4B" stroke="black" stroke-width="2"/>
<g id="body_2">
<path d="M20.5195 83.9444C26.5799 75.2374 27.4992 70.2499 26.8031 61.2538C24.8069 61.5868 22.7334 52.8025 28.8976 48.3376C32.4729 45.7479 39.091 43.4504 39.091 43.4504C45.1863 37.0696 46.1252 33.595 39.5797 27.7414C33.0341 21.8879 26.8031 22.5749 26.8031 22.5749H23.2424C21.7635 19.4756 21.386 17.8062 26.2446 15.663L27.7094 12.1025C31.888 6.14786 37.4838 4.00365 44.1876 6.79623C50.093 1.07971 54.3907 1.43206 64.4347 10.6362C64.4347 10.6362 71.5547 2.98922 74.4884 2.04864C80.7008 0.0568318 82.2412 0.819541 82.5173 5.05079C84.0342 4.12415 85.8685 3.97534 87.8933 4.56207C92.3438 5.85169 93.1653 11.1578 92.0823 15.663C91.2432 19.1539 84.6596 24.6272 78.1189 28.2302C78.1189 28.2302 83.5359 35.3686 83.4948 38.8424C83.4536 42.3162 82.8041 43.8999 80.2832 46.0336C81.7377 50.2649 81.7783 52.3611 78.1189 54.7608C78.6176 62.6157 77.8101 66.7939 72.9524 73.5416C67.7127 90.086 67.533 96.6598 76.7225 99.025C99.5988 105.872 113.463 107.98 141.373 106.356C148.185 107.181 151.607 108.516 156.244 114.245C160.587 118.132 162.993 120.895 167.136 127.72C175.542 148.081 174.013 159.313 158.06 178.966L152.684 182.596C152.488 189.146 150.086 205.923 134.252 217.296C133.377 217.924 123.982 217.023 117.495 214.922C108.056 209.163 104.553 204.567 98.0168 195.164C92.0949 190.583 88.6964 189.725 83.4948 191.324C76.5539 194.493 73.5201 197.651 68.7633 204.31C63.3036 214.533 58.1295 216.481 46.0727 214.922C34.8014 211.328 30.7869 204.094 24.7784 188.601C22.3116 176.727 19.0037 170.673 10.6055 160.674C5.00518 143.404 2.67405 133.573 7.53351 114.385C10.6953 101.377 13.8162 94.8726 20.5195 83.9444Z" fill="#FC5800"/>
<path d="M78.1189 28.2302C78.1189 28.2302 83.5359 35.3686 83.4948 38.8424C83.4536 42.3162 82.8041 43.8999 80.2832 46.0336C81.7377 50.2649 81.7783 52.3611 78.1189 54.7608C78.6176 62.6157 77.8101 66.7939 72.9524 73.5416C67.7127 90.086 67.533 96.6598 76.7225 99.025C99.5988 105.872 113.463 107.98 141.373 106.356C148.185 107.181 151.607 108.516 156.244 114.245C160.587 118.132 162.993 120.895 167.136 127.72C175.542 148.081 174.013 159.313 158.06 178.966L152.684 182.596C152.488 189.146 150.086 205.923 134.252 217.296C133.377 217.924 123.982 217.023 117.495 214.922C108.056 209.163 104.553 204.567 98.0168 195.164C92.0949 190.583 88.6964 189.725 83.4948 191.324C76.5539 194.493 73.5201 197.651 68.7633 204.31C63.3036 214.533 58.1295 216.481 46.0727 214.922C34.8014 211.328 30.7869 204.094 24.7784 188.601C22.3116 176.727 19.0037 170.673 10.6055 160.674C5.00518 143.404 2.67405 133.573 7.53351 114.385C10.6953 101.377 13.8162 94.8726 20.5195 83.9444C26.5799 75.2374 27.4992 70.2499 26.8031 61.2538C24.8069 61.5868 22.7334 52.8025 28.8976 48.3376C32.4729 45.7479 39.091 43.4504 39.091 43.4504C45.1863 37.0696 46.1252 33.595 39.5797 27.7414C33.0341 21.8879 26.8031 22.5749 26.8031 22.5749H23.2424C21.7635 19.4756 21.386 17.8062 26.2446 15.663L27.7094 12.1025C31.888 6.14786 37.4838 4.00365 44.1876 6.79623C50.093 1.07971 54.3907 1.43206 64.4347 10.6362C64.4347 10.6362 71.5547 2.98922 74.4884 2.04864C80.7008 0.0568318 82.2412 0.819541 82.5173 5.05079C84.0342 4.12415 85.8685 3.97535 87.8933 4.56207C92.3438 5.85169 93.1653 11.1578 92.0823 15.663C91.2432 19.1539 84.6596 24.6272 78.1189 28.2302ZM78.1189 28.2302L65.9706 26.8338" stroke="black" stroke-width="2"/>
</g>
</g>
<g id="head">
<path id="Vector 8427" d="M2.2826 34.1359C4.39081 31.0228 9.77876 27.6283 14.1515 26.7353L23.7863 22.4764C31.3926 21.6614 34.6405 22.7712 39.1462 26.7353C50.386 34.1359 36.5622 47.89 33.4909 46.6333C31.473 45.1571 24.8213 50.6112 23.7863 55.7095L13.1741 53.5452C3.04787 53.1943 -1.40377 40.0991 2.2826 34.1359Z" fill="#E6BC9D" stroke="black" stroke-width="2"/>
<path id="Vector 8428" d="M14.5842 53.504C20.086 43.0781 21.097 37.2675 14.5842 27.0432C10.6745 27.4621 4.94946 30.8134 3.06436 33.1173C-1.54343 40.0991 3.55293 54.1324 14.5842 53.504Z" fill="#DFA7A7" stroke="black" stroke-width="2"/>
<path id="Vector 8429" d="M11.8615 32.908C11.2283 36.5272 10.0597 37.7868 7.11392 39.1915M7.11392 39.1915C4.68894 38.7591 4.14067 38.0116 3.62305 36.3988M7.11392 39.1915C6.5726 42.4815 6.51322 44.3095 8.44045 47.43" stroke="black"/>
<g id="Group 25">
<g id="Group 26">
<ellipse id="Ellipse 15" cx="5.84322" cy="5.54632" rx="5.84322" ry="5.54632" transform="matrix(-1 0 0 1 39.0205 20.6899)" fill="white"/>
<path id="Ellipse 14" d="M26.7325 26.3588C26.7325 29.422 29.3486 31.9051 32.5757 31.9051C35.8028 31.9051 38.4189 29.422 38.4189 26.3588C38.4189 23.2957 35.8028 20.8125 32.5757 20.8125C29.3486 20.8125 26.7325 23.2957 26.7325 26.3588Z" fill="black"/>
</g>
<path id="Ellipse 9" d="M27.2214 26.4437C27.2214 29.1906 30.0141 31.4174 32.23 31.4174C35.1115 31.4174 37.4475 29.1906 37.4475 26.4437C37.4475 23.6968 35.1115 21.47 32.23 21.47C29.3484 21.47 27.2214 23.6968 27.2214 26.4437Z" fill="#D8FF00"/>
<ellipse id="Ellipse 10" cx="3.36457" cy="3.41334" rx="3.36457" ry="3.41334" transform="matrix(-1 0 0 1 35.4131 22.9329)" fill="black"/>
<ellipse id="Ellipse 11" cx="1.39635" cy="1.32653" rx="1.39635" ry="1.32653" transform="matrix(-1 0 0 1 32.7371 23.4639)" fill="white"/>
<ellipse id="Ellipse 12" cx="0.977443" cy="0.907626" rx="0.977443" ry="0.907626" transform="matrix(-1 0 0 1 32.3181 26.9546)" fill="white"/>
<circle id="Ellipse 13" cx="0.628356" cy="0.628356" r="0.628356" transform="matrix(-1 0 0 1 34.2729 26.1169)" fill="white"/>
</g>
</g>
</g>
</svg>
