<svg width="1437" height="88" viewBox="0 0 1437 88" fill="none" xmlns="http://www.w3.org/2000/svg">
<path d="M1228.36 67.197C1239.61 35.4356 1345.37 85.5065 1436.88 0.311295L0.875 0.311295C0.875 0.311295 112.26 25.3467 50.0043 67.197C-12.2511 109.047 101.009 64.6744 215.769 32.82C330.529 0.965561 344.227 36.9193 426.537 39.5459C426.537 39.5459 436.663 84.0118 518.045 32.82C599.427 -18.3719 488.417 96.3431 557.752 48.7474C627.086 1.15167 597.458 64.6748 597.458 64.6748L695.06 84.0118C515.42 -54.9908 927.206 55.6139 927.206 55.6139C927.206 55.6139 1175.85 129.599 1077.59 51.5036C979.335 -26.5919 1228.36 67.197 1228.36 67.197Z" fill="#B9FF26"/>
</svg>
