<svg width="1436" height="87" viewBox="0 0 1436 87" fill="none" xmlns="http://www.w3.org/2000/svg">
<path d="M208.518 20.1143C197.267 51.8757 91.508 1.80483 0 87H1436C1436 87 1324.62 61.9646 1386.87 20.1143C1449.13 -21.736 1335.87 22.6369 1221.11 54.4913C1106.35 86.3457 1092.65 50.392 1010.34 47.7654C1010.34 47.7654 1000.21 3.29946 918.83 54.4913C837.448 105.683 948.458 -9.03179 879.123 38.5639C809.789 86.1596 839.417 22.6365 839.417 22.6365L741.815 3.29946C921.455 142.302 509.669 31.6974 509.669 31.6974C509.669 31.6974 261.023 -42.2877 359.281 35.8077C457.54 113.903 208.518 20.1143 208.518 20.1143Z" fill="#B9FF26"/>
</svg>
