<svg width="172" height="172" viewBox="0 0 172 172" fill="none" xmlns="http://www.w3.org/2000/svg">
<g id="rocket-2" filter="url(#filter0_d_7980_178)">
<g id="Vector">
<path d="M85.624 15C88.5747 14.9974 91.4901 15.6431 94.1641 16.8906C96.838 18.1382 99.2059 19.957 101.1 22.2197C113.795 37.3523 131.698 66.4117 128.307 107.249C134.057 108.843 156.233 117.165 156.233 150.633C156.233 150.941 156.158 151.244 156.014 151.516C155.869 151.787 155.66 152.02 155.405 152.192C155.15 152.365 154.857 152.472 154.551 152.505C154.245 152.537 153.935 152.494 153.649 152.379L119.817 138.758H112.897V154.38C112.897 154.879 112.699 155.358 112.346 155.711C111.993 156.064 111.514 156.262 111.015 156.262H60.2305C59.7313 156.262 59.2524 156.064 58.8994 155.711C58.5464 155.358 58.3477 154.879 58.3477 154.38V138.758H51.1982L17.5898 152.375C17.3041 152.492 16.9937 152.537 16.6865 152.506C16.3796 152.474 16.085 152.368 15.8291 152.195C15.5731 152.023 15.3633 151.789 15.2188 151.517C15.1104 151.312 15.0412 151.09 15.0137 150.861L15 150.635C15 116.684 37.6297 108.617 42.9355 107.194C39.5665 66.389 57.4598 37.3467 70.1475 22.2197C73.9965 17.6311 79.6378 15 85.623 15H85.624ZM62.1123 138.758V152.498H109.133V138.758H62.1123ZM127.921 111.022C127.029 118.884 125.336 127.167 122.683 135.854L152.413 147.824C151.291 119.824 133.457 112.596 127.921 111.022ZM43.3193 110.96C38.0775 112.411 19.9526 119.466 18.8193 147.814L48.5381 135.772C45.8918 127.092 44.2058 118.816 43.3193 110.96ZM63.3281 38.043C50.473 58.7015 38.8846 91.6359 52.2139 134.993H119.031C132.362 91.634 120.772 58.6996 107.917 38.043H63.3281ZM85.623 18.7666C83.2225 18.7646 80.8504 19.2891 78.6748 20.3037C76.4992 21.3183 74.5726 22.7983 73.0312 24.6387C70.4456 27.7252 68.0182 30.9432 65.7637 34.2793H105.481C103.226 30.9431 100.8 27.7252 98.2139 24.6387C96.6728 22.7979 94.7469 21.3174 92.5713 20.3027C90.3957 19.2881 88.0236 18.7642 85.623 18.7666Z" fill="#FF00D6"/>
<path d="M85.624 15C88.5747 14.9974 91.4901 15.6431 94.1641 16.8906C96.838 18.1382 99.2059 19.957 101.1 22.2197C113.795 37.3523 131.698 66.4117 128.307 107.249C134.057 108.843 156.233 117.165 156.233 150.633C156.233 150.941 156.158 151.244 156.014 151.516C155.869 151.787 155.66 152.02 155.405 152.192C155.15 152.365 154.857 152.472 154.551 152.505C154.245 152.537 153.935 152.494 153.649 152.379L119.817 138.758H112.897V154.38C112.897 154.879 112.699 155.358 112.346 155.711C111.993 156.064 111.514 156.262 111.015 156.262H60.2305C59.7313 156.262 59.2524 156.064 58.8994 155.711C58.5464 155.358 58.3477 154.879 58.3477 154.38V138.758H51.1982L17.5898 152.375C17.3041 152.492 16.9937 152.537 16.6865 152.506C16.3796 152.474 16.085 152.368 15.8291 152.195C15.5731 152.023 15.3633 151.789 15.2188 151.517C15.1104 151.312 15.0412 151.09 15.0137 150.861L15 150.635C15 116.684 37.6297 108.617 42.9355 107.194C39.5665 66.389 57.4598 37.3467 70.1475 22.2197C73.9965 17.6311 79.6378 15 85.623 15H85.624ZM62.1123 138.758V152.498H109.133V138.758H62.1123ZM127.921 111.022C127.029 118.884 125.336 127.167 122.683 135.854L152.413 147.824C151.291 119.824 133.457 112.596 127.921 111.022ZM43.3193 110.96C38.0775 112.411 19.9526 119.466 18.8193 147.814L48.5381 135.772C45.8918 127.092 44.2058 118.816 43.3193 110.96ZM63.3281 38.043C50.473 58.7015 38.8846 91.6359 52.2139 134.993H119.031C132.362 91.634 120.772 58.6996 107.917 38.043H63.3281ZM85.623 18.7666C83.2225 18.7646 80.8504 19.2891 78.6748 20.3037C76.4992 21.3183 74.5726 22.7983 73.0312 24.6387C70.4456 27.7252 68.0182 30.9432 65.7637 34.2793H105.481C103.226 30.9431 100.8 27.7252 98.2139 24.6387C96.6728 22.7979 94.7469 21.3174 92.5713 20.3027C90.3957 19.2881 88.0236 18.7642 85.623 18.7666Z" stroke="black"/>
</g>
<g id="Vector_2">
<path d="M96.2197 62C106.268 62.0002 114.442 70.1729 114.442 80.2217C114.442 90.2683 106.268 98.4402 96.2197 98.4404C86.1729 98.4404 78.0002 90.2684 78 80.2197C78 70.1727 86.1727 62 96.2197 62ZM96.2197 65.7646C88.2488 65.7646 81.7646 72.2507 81.7646 80.2217C81.7649 88.1924 88.2489 94.6768 96.2197 94.6768C104.19 94.6766 110.678 88.1904 110.678 80.2197C110.678 72.2489 104.191 65.7649 96.2197 65.7646Z" fill="#FF00D6"/>
<path d="M96.2197 62C106.268 62.0002 114.442 70.1729 114.442 80.2217C114.442 90.2683 106.268 98.4402 96.2197 98.4404C86.1729 98.4404 78.0002 90.2684 78 80.2197C78 70.1727 86.1727 62 96.2197 62ZM96.2197 65.7646C88.2488 65.7646 81.7646 72.2507 81.7646 80.2217C81.7649 88.1924 88.2489 94.6768 96.2197 94.6768C104.19 94.6766 110.678 88.1904 110.678 80.2197C110.678 72.2489 104.191 65.7649 96.2197 65.7646Z" stroke="black"/>
</g>
</g>
<defs>
<filter id="filter0_d_7980_178" x="0" y="0" width="171.234" height="171.262" filterUnits="userSpaceOnUse" color-interpolation-filters="sRGB">
<feFlood flood-opacity="0" result="BackgroundImageFix"/>
<feColorMatrix in="SourceAlpha" type="matrix" values="0 0 0 0 0 0 0 0 0 0 0 0 0 0 0 0 0 0 127 0" result="hardAlpha"/>
<feOffset/>
<feGaussianBlur stdDeviation="7.5"/>
<feColorMatrix type="matrix" values="0 0 0 0 1 0 0 0 0 0 0 0 0 0 0.839216 0 0 0 1 0"/>
<feBlend mode="normal" in2="BackgroundImageFix" result="effect1_dropShadow_7980_178"/>
<feBlend mode="normal" in="SourceGraphic" in2="effect1_dropShadow_7980_178" result="shape"/>
</filter>
</defs>
</svg>
